<svg xmlns="http://www.w3.org/2000/svg" viewBox="0 0 512 512">
  <defs>
    <radialGradient id="s" cx="50%" cy="50%" r="50%">
      <stop offset="0%" stop-color="#FFF9C4"/>
      <stop offset="40%" stop-color="#FFF176"/>
      <stop offset="75%" stop-color="#FFD54F"/>
      <stop offset="100%" stop-color="#FFA000"/>
    </radialGradient>
  </defs>
  <rect width="512" height="512" rx="64" fill="#ffffff"/>
  <circle cx="256" cy="256" r="208" fill="none" stroke="#FFA000" stroke-width="2" opacity="0.2"/>
  <circle cx="256" cy="256" r="160" fill="none" stroke="#FFA000" stroke-width="2" opacity="0.25"/>
  <polygon points="256,56 240,176 256,192 272,176" fill="#FFB300" opacity="0.5"/>
  <polygon points="256,56 240,176 256,192 272,176" fill="#FFB300" opacity="0.5" transform="rotate(90 256 256)"/>
  <polygon points="256,56 240,176 256,192 272,176" fill="#FFB300" opacity="0.5" transform="rotate(180 256 256)"/>
  <polygon points="256,56 240,176 256,192 272,176" fill="#FFB300" opacity="0.5" transform="rotate(270 256 256)"/>
  <polygon points="256,96 244,184 256,196 268,184" fill="#FFB300" opacity="0.3" transform="rotate(45 256 256)"/>
  <polygon points="256,96 244,184 256,196 268,184" fill="#FFB300" opacity="0.3" transform="rotate(135 256 256)"/>
  <polygon points="256,96 244,184 256,196 268,184" fill="#FFB300" opacity="0.3" transform="rotate(225 256 256)"/>
  <polygon points="256,96 244,184 256,196 268,184" fill="#FFB300" opacity="0.3" transform="rotate(315 256 256)"/>
  <circle cx="256" cy="256" r="80" fill="url(#s)"/>
  <circle cx="232" cy="232" r="24" fill="#ffffff" opacity="0.2"/>
</svg>